<svg role="img" aria-hidden="true" xmlns="http://www.w3.org/2000/svg" width="163" height="26" viewBox="0 0 163 26">
    <path fill="#111E6C" d="M31.393.307c-1.228 0-4.688.12-7.493 2.91-2.54 2.432-5.462 5.206-6.502 6.194H43.41L47.924.307H31.393zM12.988 13.628L.092 25.882l30.144.012c.277 0 4.905.176 6.56-3.166 1.578-3.185 3.878-7.812 4.516-9.098H12.988v-.002zm23.921 10.79l-.04.196h.441l-.236 1.075h.286l.23-1.075h.444l.045-.196h-1.17zm1.778 0l.09.511c.023.147.036.298.048.44h.011c.07-.139.157-.292.248-.442l.322-.51h.368l-.185 1.272h-.277l.085-.519c.027-.164.057-.362.097-.534h-.012c-.083.155-.184.327-.288.487l-.345.55h-.216l-.088-.543c-.026-.162-.04-.337-.052-.494l-.046.175c-.032.122-.067.25-.1.366l-.144.512h-.264l.378-1.271h.37zm77.448-16.435v.002h.541c5.107.019 6.14.44 7.272 1.672.88.956 1.01 1.91.671 3.342 0 0-.856 3.68-1.02 4.288-.273 1.014-.752 2.289-2.071 3.112-1.538.966-4.023.927-6.574.89l-3.09-.011c-5.122 0-6.475-2.1-6.02-4.009.413-1.742.922-3.796 1.022-4.203l.018-.072c.34-1.428.493-2.722 2.177-3.928 1.513-1.084 4.008-1.083 7.074-1.083zm-25.35-2.977v.004h3.935c.118 0 .231.052.304.14.116.138.152.359.1.593l-.542 2.264h4.376c.395.004 2.025.023 2.527.059.573.04 1.132.09 1.681.26 2.648.811 3.486 2.547 2.72 5.475 0 0-.633 2.829-.816 3.507-1.01 3.596-4.602 3.961-7.988 3.961-2.333 0-9.482-.01-10.59-.011h-.144l3.72-15.554c.095-.39.371-.698.717-.698zm43.423 3.04v.002h8.241c.08.001 2.052.018 2.618.059.563.039 1.134.128 1.686.259 2.6.763 3.517 2.607 2.713 5.476l-1.737 7.414-11.022.011c-.11-.009-2.7-.029-3.391-.104-.717-.073-1.324-.252-1.805-.531-1.335-.717-1.832-1.801-1.49-3.284.21-.9.7-1.711 1.453-2.41.756-.7 1.656-1.18 2.67-1.423.902-.226 2.357-.34 4.325-.34h5.54c.317 0 .494-.078.608-.453.31-.977-.143-1.715-1.936-1.715h-9.244c-.118 0-.268-.052-.347-.14-.115-.14-.158-.304-.1-.592l.36-1.528c.089-.393.37-.701.858-.701zM52.255 4.902l.001.004h9.805c1.04 0 2.79.06 4.198.489 1.229.37 1.947 1.057 2.369 1.938.27.554.328 1.19.146 1.951-.244.96-.795 1.783-1.62 2.475-.861.733-1.492 1.102-1.503 1.102-.164.096-.266.217-.266.31-.003.046.023.088.076.118.218.119 2.572 1.435 2.587 3.358.262-.623.668-1.197 1.22-1.709.76-.699 1.658-1.178 2.672-1.421.897-.226 2.356-.34 4.326-.34h5.413c.313 0 .491-.079.61-.454.302-.976-.144-1.715-1.94-1.715h-9.115c-.124 0-.27-.052-.349-.14-.116-.14-.157-.304-.1-.592l.361-1.528c.09-.392.37-.7.857-.7h8.273c.256.002 2.051.02 2.584.058.564.04 1.131.128 1.684.26 2.604.762 3.554 2.45 2.783 5.475l-1.803 7.414-10.062.012h-.965c-.105-.01-2.692-.029-3.389-.104-.708-.074-1.317-.252-1.8-.532-1.234-.66-1.743-1.638-1.548-2.947l-.012.038c-.336.751-.827 1.41-1.584 1.967-.847.622-1.526.952-3.051 1.293-1.157.26-3.938.26-4.075.27-.29.003-.743.015-1.016.015l-10.251-.012L51.53 5.551c.09-.36.41-.65.725-.65zM157.883 19.89l-.047.212h-.48l-.25 1.159h-.305l.253-1.159h-.476l.045-.212h1.26zm.651 0l.1.553c.022.16.037.322.049.475h.011c.077-.149.172-.318.27-.478l.35-.55h.395l-.199 1.37h-.297l.088-.556c.028-.177.062-.392.103-.577h-.011c-.09.166-.2.354-.311.525l-.374.593h-.232l-.095-.586c-.026-.175-.043-.361-.054-.532l-.05.19c-.034.131-.071.27-.106.394l-.155.55h-.284l.408-1.37h.394zM131.86 4.994c.124 0 .235.05.313.144.115.136.15.357.092.586l-3.716 15.531h-5.13l3.729-15.563c.086-.393.4-.698.705-.698zm30.626 0c.12 0 .261.062.338.149.116.141.124.35.07.586l-.439 1.877c-.086.388-.408.7-.705.7h-4.367c-.227 0-.441.206-.52.584l-2.953 12.365h-5.393l2.957-12.392c.046-.193.063-.354-.029-.46-.05-.057-.151-.096-.225-.096h-1.841c-.12 0-.233-.051-.307-.145-.115-.138-.13-.36-.068-.59l.469-1.997c.094-.383.393-.581.696-.581zM81.208 16.141h-5.673c-1.057 0-1.449.079-1.814.284-.36.206-.56.517-.644.865-.09.4.046.726.376.879.35.166.79.191 1.74.191h5.46c.228 0 .484-.27.559-.59l.252-1.07c.04-.194.018-.368-.073-.47-.047-.057-.111-.09-.183-.09zm62.2 0h-5.666c-1.059 0-1.446.079-1.812.284-.358.206-.568.517-.649.865-.09.4.047.726.376.879.35.166.792.191 1.747.191h5.458c.223 0 .486-.27.556-.59l.253-1.07c.044-.194.016-.368-.07-.47-.051-.057-.113-.09-.192-.09zm-84.63-1.508h-2.793c-.295.004-.517.23-.587.518l-.637 2.655c-.035.164-.014.305.068.399.052.068.13.103.22.103 0 0 2.571 0 2.858-.011.009 0 .87.013 1.244-.034.378-.047.769-.126 1.122-.286.887-.373 1.384-.93 1.548-1.593.156-.633-.09-1.117-.752-1.417-.772-.355-1.857-.334-2.47-.334zm38.526-3.064h-3.573v.003l-1.418 6.046h4.178c1.497 0 3.077-.164 3.522-1.807.085-.308.363-1.582.363-1.597.36-1.31-.05-2.15-1.199-2.5-.239-.06-.49-.098-.741-.117-.252-.017-1.117-.029-1.158-.029zm17.211-.015c-1.04.012-1.843.087-2.42.498-.884.633-.903 1.042-1.31 2.538-.379 1.374-.409 1.793.237 2.368.68.604 1.85.593 3.47.593l.715.011c1.325.02 2.421.038 3.204-.453.923-.58 1.064-1.212 1.256-2.089l.073-.322.045-.214c.205-.867.362-1.491-.164-2.075-.619-.68-1.077-.852-3.894-.852h-1.212zM60.78 7.931h-3.202c-.24 0-.501.22-.57.51l-.634 2.66c-.038.16-.014.302.068.4.052.063.13.099.221.099h2.97c.203-.002.87-.013 1.183-.06.37-.054.74-.159 1.102-.301.893-.387 1.337-.942 1.517-1.598.418-1.481-1.237-1.71-2.655-1.71z"/>
</svg>
